HIERARCHY
ROOT hip
{
  OFFSET 0 0 0
  CHANNELS 6 Xposition Yposition Zposition Zrotation Yrotation Xrotation
  JOINT abdomen
  {
    OFFSET 0 20.6881 -0.73152
    CHANNELS 3 Zrotation Xrotation Yrotation
    JOINT chest
    {
      OFFSET 0 11.7043 -0.48768
      CHANNELS 3 Zrotation Xrotation Yrotation
      JOINT neck
      {
        OFFSET 0 22.1894 -2.19456
        CHANNELS 3 Zrotation Xrotation Yrotation
        JOINT head
        {
          OFFSET -0.24384 7.07133 1.2192
          CHANNELS 3 Zrotation Xrotation Yrotation
          JOINT leftEye
          {
            OFFSET 4.14528 8.04674 8.04672
            CHANNELS 3 Zrotation Xrotation Yrotation
            End Site
            {
              OFFSET 1 0 0
            }
          }
          JOINT rightEye
          {
            OFFSET -3.6576 8.04674 8.04672
            CHANNELS 3 Zrotation Xrotation Yrotation
            End Site
            {
              OFFSET 1 0 0
            }
          }
        }
      }
      JOINT rCollar
      {
        OFFSET -2.68224 19.2634 -4.8768
        CHANNELS 3 Zrotation Xrotation Yrotation
        JOINT rShldr
        {
          OFFSET -8.77824 -1.95073 1.46304
          CHANNELS 3 Zrotation Xrotation Yrotation
          JOINT rForeArm
          {
            OFFSET -28.1742 -1.7115 0.48768
            CHANNELS 3 Zrotation Xrotation Yrotation
            JOINT rHand
            {
              OFFSET -22.5879 0.773209 7.07136
              CHANNELS 3 Zrotation Xrotation Yrotation
              JOINT rThumb1
              {
                OFFSET -1.2192 -0.487915 3.41376
                CHANNELS 3 Zrotation Xrotation Yrotation
                JOINT rThumb2
                {
                  OFFSET -3.37035 -0.52449 3.41376
                  CHANNELS 3 Zrotation Xrotation Yrotation
                  End Site
                  {
                    OFFSET -1.78271 -1.18214 1.43049
                  }
                }
              }
              JOINT rIndex1
              {
                OFFSET -7.75947 0.938293 5.60832
                CHANNELS 3 Zrotation Xrotation Yrotation
                JOINT rIndex2
                {
                  OFFSET -2.54057 -0.884171 1.56538
                  CHANNELS 3 Zrotation Xrotation Yrotation
                  End Site
                  {
                    OFFSET -1.62519 -0.234802 1.16502
                  }
                }
              }
              JOINT rMid1
              {
                OFFSET -8.24714 1.18213 3.41376
                CHANNELS 3 Zrotation Xrotation Yrotation
                JOINT rMid2
                {
                  OFFSET -3.10165 -0.590103 1.0647
                  CHANNELS 3 Zrotation Xrotation Yrotation
                  End Site
                  {
                    OFFSET -2.48547 -0.328903 0.83742
                  }
                }
              }
              JOINT rRing1
              {
                OFFSET -8.82822 0.546677 1.51678
                CHANNELS 3 Zrotation Xrotation Yrotation
                JOINT rRing2
                {
                  OFFSET -2.60934 -0.819778 -0.0198488
                  CHANNELS 3 Zrotation Xrotation Yrotation
                  End Site
                  {
                    OFFSET -2.33842 -0.294052 0.168128
                  }
                }
              }
              JOINT rPinky1
              {
                OFFSET -8.27202 -0.0477905 -0.4584
                CHANNELS 3 Zrotation Xrotation Yrotation
                JOINT rPinky2
                {
                  OFFSET -1.82734 -0.647385 -0.700984
                  CHANNELS 3 Zrotation Xrotation Yrotation
                  End Site
                  {
                    OFFSET -1.69225 -0.51767 -0.607171
                  }
                }
              }
            }
          }
        }
      }
      JOINT lCollar
      {
        OFFSET 2.68224 19.2634 -4.8768
        CHANNELS 3 Zrotation Xrotation Yrotation
        JOINT lShldr
        {
          OFFSET 8.77824 -1.95073 1.46304
          CHANNELS 3 Zrotation Xrotation Yrotation
          JOINT lForeArm
          {
            OFFSET 28.1742 -1.7115 0.48768
            CHANNELS 3 Zrotation Xrotation Yrotation
            JOINT lHand
            {
              OFFSET 22.5879 0.773209 7.07136
              CHANNELS 3 Zrotation Xrotation Yrotation
              JOINT lThumb1
              {
                OFFSET 1.2192 -0.487915 3.41376
                CHANNELS 3 Zrotation Xrotation Yrotation
                JOINT lThumb2
                {
                  OFFSET 3.37035 -0.52449 3.41376
                  CHANNELS 3 Zrotation Xrotation Yrotation
                  End Site
                  {
                    OFFSET 1.78271 -1.18214 1.43049
                  }
                }
              }
              JOINT lIndex1
              {
                OFFSET 7.75947 0.938293 5.60832
                CHANNELS 3 Zrotation Xrotation Yrotation
                JOINT lIndex2
                {
                  OFFSET 2.54057 -0.884171 1.56538
                  CHANNELS 3 Zrotation Xrotation Yrotation
                  End Site
                  {
                    OFFSET 1.62519 -0.234802 1.16502
                  }
                }
              }
              JOINT lMid1
              {
                OFFSET 8.24714 1.18213 3.41376
                CHANNELS 3 Zrotation Xrotation Yrotation
                JOINT lMid2
                {
                  OFFSET 3.10165 -0.590103 1.0647
                  CHANNELS 3 Zrotation Xrotation Yrotation
                  End Site
                  {
                    OFFSET 2.48547 -0.328903 0.83742
                  }
                }
              }
              JOINT lRing1
              {
                OFFSET 8.82822 0.546677 1.51678
                CHANNELS 3 Zrotation Xrotation Yrotation
                JOINT lRing2
                {
                  OFFSET 2.60934 -0.819778 -0.0198488
                  CHANNELS 3 Zrotation Xrotation Yrotation
                  End Site
                  {
                    OFFSET 2.33842 -0.294052 0.168128
                  }
                }
              }
              JOINT lPinky1
              {
                OFFSET 8.27202 -0.0477905 -0.4584
                CHANNELS 3 Zrotation Xrotation Yrotation
                JOINT lPinky2
                {
                  OFFSET 1.82734 -0.647385 -0.700984
                  CHANNELS 3 Zrotation Xrotation Yrotation
                  End Site
                  {
                    OFFSET 1.69225 -0.51767 -0.607171
                  }
                }
              }
            }
          }
        }
      }
    }
  }
  JOINT rButtock
  {
    OFFSET -8.77824 4.35084 1.2192
    CHANNELS 3 Zrotation Xrotation Yrotation
    JOINT rThigh
    {
      OFFSET 0 -1.70687 -2.19456
      CHANNELS 3 Zrotation Xrotation Yrotation
      JOINT rShin
      {
        OFFSET 0 -36.8199 0.73152
        CHANNELS 3 Zrotation Xrotation Yrotation
        JOINT rFoot
        {
          OFFSET 0.73152 -45.1104 -5.12064
          CHANNELS 3 Zrotation Xrotation Yrotation
          End Site
          {
            OFFSET -1.1221 -3.69964 12.103
          }
        }
      }
    }
  }
  JOINT lButtock
  {
    OFFSET 8.77824 4.35084 1.2192
    CHANNELS 3 Zrotation Xrotation Yrotation
    JOINT lThigh
    {
      OFFSET 0 -1.70687 -2.19456
      CHANNELS 3 Zrotation Xrotation Yrotation
      JOINT lShin
      {
        OFFSET 0 -36.8199 0.73152
        CHANNELS 3 Zrotation Xrotation Yrotation
        JOINT lFoot
        {
          OFFSET -0.73152 -45.1104 -5.12064
          CHANNELS 3 Zrotation Xrotation Yrotation
          End Site
          {
            OFFSET 1.1221 -3.69964 12.103
          }
        }
      }
    }
  }
}
MOTION
Frames:	8
Frame Time:	0.03333
0.9542 71.06670000000001 -0.5766 -179.04565 -34.908494 -176.453276 -1.28389 0.433009 -94.194166 2.390464 1.939123 95.322797 9.722202 18.696591 89.051897 -12.327977 0.499721 -85.589822 -0.001168 -0.0 0.001535 -0.001168 -0.0 0.001535 4.273601 -47.142376 -9.149244 -114.370447 -10.467289 -132.665748 7.523656 20.737934 -74.395919 170.463403 -18.93953 143.416588 12.147773 -12.119016 -0.589183 -129.646165 -17.420052 116.846819 -172.385033 -51.297462 120.381714 -152.299065 -3.755656 118.277222 -12.437988 28.325633 8.818042 -1.402747 13.131916 2.30306 -145.121882 1.871725 -179.715073 9.322027 -7.985444 -10.054211 -117.857653 -36.120674 -115.792602 6.704836 9.60101 1.155387 157.761945 -66.195617 -175.67609 73.72256 -25.695911 95.887919 159.398583 -19.074283 65.098037 2.432892 -2.3908 1.471595 153.446206 8.451826 -87.268732 77.64139 -0.998878 -32.637898 168.521844 -46.377549 -121.652227 154.84674 -8.10136 -118.863616 158.270896 0.539974 -142.004871 41.438778 57.89007 -35.638132 145.000584 -5.265232 177.468087 -11.999608 58.786751 1.628561 -2.849066 7.956024 -2.601539 74.942126 -54.91221 74.476384 0.00013 0.000184 -1e-05 -7.631426 -24.609142 -133.207304 -38.882716 -33.269423 -90.417395 -17.072456 15.072262 -153.286716 -0.000166 0.000184 -0.00024 4.653593 -14.724803 36.685063 20.504858 31.195352 -120.138554 32.36601 -43.966661 114.773228
1.0784 71.0629 -0.701 -179.087699 -35.013619 -176.470555 -6.095867 0.814834 84.153769 -2.296393 -6.798376 -83.140834 6.253142 28.457266 151.545363 -13.241009 18.075978 -143.926552 -0.005261 0.0 -0.000283 0.001504 -0.0 -0.003775 -158.207888 -26.71246 166.30895 133.56799 -9.03245 -176.154116 -13.351648 -17.60232 32.850893 -1.674111 3.273703 -0.394056 13.097401 -13.05131 -0.525068 38.43617 -82.896368 -24.405968 -30.392639 32.547967 22.594179 170.222522 -42.921426 103.464194 5.032812 -15.582639 -2.274783 -172.124821 -31.319243 144.096605 -145.121593 1.726946 -179.671699 -142.541719 -55.632266 -164.592624 -11.492076 -22.882428 -10.906087 -151.875122 29.295845 -147.123696 154.291467 3.730778 -160.223388 -139.353279 -17.741726 155.536774 -178.62925 10.571447 -33.020047 -177.171096 -7.969031 -143.717163 -11.872804 -11.846334 0.60437 68.334463 33.043548 -57.849564 31.636218 33.28398 -23.650974 -161.230301 -49.498937 -98.129182 177.879474 -54.447753 -143.199004 173.071725 -33.061895 -143.616026 0.485925 -11.876184 3.79881 -11.358403 -1.062973 0.317199 153.412511 42.12474 148.424 158.602726 44.695682 146.82007 -179.984452 75.750464 -0.012862 166.351611 51.840396 45.656119 15.995004 33.204871 -25.060353 74.295904 -34.827808 -9.365431 0.005201 -0.001462 0.002676 5.800516 -16.619507 -160.432706 -25.691685 -37.877539 -95.294206 -81.979651 -65.633277 -176.146887
1.2108 71.0602 -0.8410000000000001 -179.135768 -35.097708 -176.485304 -6.183442 0.602215 87.946046 -2.591569 -6.6761 -86.953364 -10.756028 23.586237 -93.217088 15.840961 20.070861 101.254616 -0.004882 0.0 -0.001544 0.000732 -0.0 -0.000832 -2.031125 -76.486877 -21.50176 -70.164444 -30.997281 -84.255729 -173.507632 10.884588 -142.058799 -6.738101 18.907985 0.22433 -3.710172 3.619563 0.684783 -14.626996 14.245382 14.710711 -103.775615 36.475767 87.732733 -148.347937 16.375116 111.218611 -81.192678 61.149063 72.944349 -165.087961 -10.920803 143.703882 -145.090029 -2.04817 -178.484303 11.278112 12.037255 -7.568401 -10.221017 -20.936394 -9.677701 4.789193 5.471708 1.510245 -2.570007 -19.260329 3.863993 -78.814488 10.625694 -21.165291 -171.13509 -13.427521 -25.534446 179.157477 2.368853 -143.418746 168.635605 -6.313903 -89.896991 25.085598 -34.99951 -5.457165 149.795819 -14.281295 -120.595273 154.06852 0.244582 -118.528923 -2.58326 -7.806189 1.306328 2.434047 15.399885 -2.805867 0.011052 -0.99347 0.313366 -4.845447 39.711045 -7.182647 -7.567519 23.496553 -6.701234 -15.914563 47.968217 -8.949724 -0.000205 -0.001757 0.000363 -9.12751 -24.732735 141.551484 29.127889 -33.314352 -49.651712 -16.181857 45.978611 -74.54969 -0.058069 -2.4e-05 -0.04461 4.819314 -14.538 37.187327 32.766368 23.495188 35.879105 -105.204488 45.569778 12.126526
1.3521 71.0594 -0.9958 -179.195312 -35.166122 -176.499496 -1.507792 0.394325 -91.241125 2.671517 1.881853 92.447039 10.122241 23.458875 113.784728 -15.110722 8.474679 -106.451256 -0.00011 0.0 -0.002999 -0.00011 0.0 -0.002999 3.436223 -62.811684 -13.299467 91.901933 36.980324 -74.811173 -3.83615 0.102532 40.301301 -5.026959 13.750856 -0.146617 3.197226 -3.177269 -0.403545 16.443969 -28.704778 -14.80243 43.163368 -62.512029 2.905066 -168.462944 -32.86299 111.726517 -136.580152 40.906189 125.216277 23.994425 -52.449561 2.995231 0.005573 1.165284 0.365309 5.735571 35.204259 5.959166 -93.298622 -48.874165 -91.591564 -157.264098 47.4582 -147.972962 139.69007 44.691065 -143.916435 -118.907149 -12.869692 -167.214091 -167.709368 -0.098826 -24.944977 176.490924 9.499729 -142.743868 177.902948 -15.472884 -89.550773 -116.417754 -65.466933 -87.801436 -0.596128 -0.974853 0.33304 134.463447 21.895643 -102.583051 78.956518 61.161501 -70.792532 0.058191 9.793532 -1.756466 -0.00243 0.518438 -0.163896 87.325808 78.454895 -100.750073 -12.927034 44.097936 -10.72312 147.203175 8.729956 142.632218 -0.001986 0.002007 -0.000579 -8.765147 -24.895853 156.288882 20.577884 -34.249912 -113.673994 71.199068 -61.87935 -16.60092 -0.014099 -0.000348 -0.012164 4.904739 -14.339274 32.074581 25.759559 23.714503 -1.82423 -62.114365 3.645767 -8.319635
1.5079 71.06099999999999 -1.1681000000000001 -179.258563 -35.224547 -176.517144 -6.384686 0.551091 85.420273 -2.49093 -6.787994 -84.318464 -7.538957 28.691399 -125.142932 9.025359 25.450729 135.336436 0.000958 -0.0 -0.000225 0.000958 -0.0 -0.000225 -151.63973 16.116893 156.977737 -81.864917 29.556998 43.837481 -154.601873 26.095295 -153.82724 -0.727397 0.145742 -0.366949 2.144627 -2.130115 -0.291318 -18.820696 17.832943 15.212323 -120.909048 25.485798 102.112171 8.61702 -2.922014 -7.971261 -152.050584 16.573457 137.9572 111.694254 -78.138983 81.711827 0.001623 0.146227 0.044115 -155.465603 -1.687572 172.050787 -114.161933 -39.047972 -112.167843 -160.32509 54.845745 -147.650991 150.090168 21.801844 -155.185867 -128.312288 -11.440722 166.041786 151.413418 -29.887071 -35.750407 -165.886059 -41.192305 -139.76178 178.049678 -15.613609 -89.534175 158.614307 2.199257 -85.817017 -44.154007 -63.160168 -3.553892 -172.35919 -51.525381 -101.423416 -158.56054 -74.916975 -125.602983 -10.206697 -21.742602 1.298856 -0.002388 1.977023 -0.622231 -10.041683 1.803941 -0.161498 95.960934 -48.092731 94.221767 151.049076 26.589609 145.504855 179.96233 75.747956 0.029625 167.821723 52.191454 7.302956 -4.978518 45.018086 124.495854 -110.050459 -31.75841 170.325798 -179.988689 75.748909 -0.009975 -169.028595 58.985277 -176.406347 -22.27364 -37.420484 -106.687856 -12.737382 -27.526818 -92.967854
1.6808 71.0644 -1.3575 -179.29592 -35.266203 -176.54797 -6.450889 0.599344 82.580398 -2.301347 -6.910547 -81.463676 4.905476 30.389386 163.346623 -10.517449 22.035766 -152.199161 -0.002002 0.0 -0.005331 0.002572 -0.0 -0.000705 -11.945565 39.389442 13.660693 67.528208 11.834534 29.398867 1.772367 -25.51575 40.355843 -7.082082 19.843742 0.306963 17.746766 -17.520361 0.009323 -133.679325 -21.154429 120.316481 -139.146827 3.904483 115.265997 86.078029 -69.349066 35.96538 -152.380004 15.823288 138.197919 -153.064855 21.694674 137.83055 -145.082857 -2.44114 -178.358809 -151.602944 -28.219191 -174.677003 -153.808154 43.686506 -148.679496 -1.393014 -7.442787 -4.359814 -1.637298 -11.18929 2.326512 -75.119447 14.366985 -37.831349 21.2743 -8.014949 -122.120578 -2.547258 -23.283878 1.642336 156.2089 5.893782 -88.023953 -166.012731 -28.500238 -88.897899 12.195491 16.934965 -8.044956 10.506906 24.615602 -7.491206 140.811027 35.989802 -128.917017 136.930485 45.426642 -125.276409 0.01877 -1.574524 0.494491 50.531621 77.978731 -63.919752 158.758491 62.194945 150.932162 -4.337803 7.636613 -0.568832 179.73258 75.748805 0.209234 168.881247 50.018067 -161.930113 -7.352209 -46.956953 -74.796894 -16.170741 8.36264 -120.894456 -179.990478 75.748925 -0.006161 -168.125987 61.362757 -20.642314 -12.634894 39.038948 -108.142192 -14.257517 36.2196 136.414142
1.8675000000000002 71.071 -1.5615 -179.302448 -35.295726 -176.5905 -1.745673 0.165114 -91.732884 2.731821 1.910777 92.954955 -10.050098 25.587726 -100.056158 15.703089 20.811684 110.935716 -0.001429 -0.0 0.001644 0.004205 0.0 0.002256 -93.51138 67.532966 96.74995 -149.627572 -7.487 107.689305 -36.97957 -84.602859 -115.225754 166.791535 -28.486337 141.687642 -4.895274 4.752907 0.94936 -168.701532 -72.493013 107.666416 -138.49538 4.895415 114.865457 -170.276282 -28.195086 118.113088 -63.856095 60.180788 56.265769 -159.92822 4.497999 141.975591 -145.077486 -2.653647 -178.292656 -117.228519 -73.113593 -139.204122 -140.937878 -0.117941 -137.982847 -139.526461 -8.167784 -135.759502 145.927384 33.413863 -150.565691 -123.375384 -13.528664 173.05923 -2.870711 14.713109 -121.914091 8.684468 11.240049 1.029925 -149.265896 -39.92837 -77.864258 132.243303 24.116001 -76.877621 -9.148993 -16.079332 4.217831 -4.967092 11.748116 -1.574732 -9.459477 -29.682516 3.212415 168.785186 -21.460414 -144.295268 0.261488 11.167719 -3.547571 157.013684 -14.147411 -173.613761 135.440671 -12.658911 132.822041 135.773399 -15.314403 132.840872 179.949984 75.749639 0.041408 168.776826 52.249192 -11.292134 -18.84152 37.332761 107.206707 -14.623514 -15.236829 -89.624627 179.97032 75.749641 0.025592 -169.854282 59.515346 147.204979 7.003528 -39.37568 -83.038569 17.504187 -48.947184 -64.063131
2.0681000000000003 71.0785 -1.7752000000000001 -179.286108 -35.326581 -176.634135 -1.784983 0.048544 -93.023494 2.642097 1.990097 94.157283 -1.819425 11.915077 1.55304 9.295509 -5.870453 9.845768 0.002331 -0.0 -0.006548 0.001471 0.0 0.001508 3.999123 -37.815417 -7.285513 -109.935137 -9.432842 -139.4737 5.901007 13.514676 -75.094977 169.916125 -20.610262 143.163493 -176.435572 -14.053241 89.705433 -155.449393 3.782707 83.015566 -148.909907 -12.65488 120.253995 -168.972308 -29.721963 118.59928 -147.485267 25.781513 134.471666 -15.187833 38.586362 12.401456 -0.24991 10.960839 3.480658 -136.166576 65.805659 149.278873 -141.409089 1.116874 -138.416146 56.3821 82.237733 -18.953524 30.869254 58.784844 -33.2985 -69.300763 -22.496352 -107.099724 2.189814 -8.729204 -121.945548 6.116256 2.99697 1.834671 -8.796048 -8.789816 0.685469 123.685197 -8.979816 -111.647005 -107.579752 -76.304475 -56.910585 -1.087301 24.240643 -0.19209 171.493815 -40.087074 -145.216595 -177.431033 -52.608474 -139.62849 0.069001 6.569069 -2.070316 156.331985 -7.450496 -172.774995 8.689364 -18.437131 8.208116 17.989449 -36.145011 19.275117 -0.014054 -0.001618 -0.011383 -8.96706 -24.039351 100.054914 48.866182 2.472019 150.747417 30.319778 76.791146 67.974585 0.000321 -1.3e-05 0.000418 6.121239 -15.671967 -169.438126 -9.297158 -32.032856 159.089942 9.510857 -5.775928 19.062811
